<svg width="100" height="100" viewBox="0 0 100 100" fill="none" xmlns="http://www.w3.org/2000/svg">
<path fill-rule="evenodd" clip-rule="evenodd" d="M37.9352 43.5C37.9352 43.2239 38.1591 43 38.4352 43L54.4352 43C54.7114 43 54.9352 43.2239 54.9352 43.5C54.9352 43.7761 54.7114 44 54.4352 44L38.4352 44C38.1591 44 37.9352 43.7761 37.9352 43.5Z" fill="#333333"/>
<path fill-rule="evenodd" clip-rule="evenodd" d="M50.5817 39.6464C50.7769 39.4512 51.0935 39.4512 51.2888 39.6464L55.1423 43.5L51.2888 47.3536C51.0935 47.5488 50.7769 47.5488 50.5817 47.3536C50.3864 47.1583 50.3864 46.8417 50.5817 46.6464L53.7281 43.5L50.5817 40.3536C50.3864 40.1583 50.3864 39.8417 50.5817 39.6464Z" fill="#333333"/>
</svg>
